<?xml version="1.0" standalone="no"?><!DOCTYPE svg PUBLIC "-//W3C//DTD SVG 1.1//EN" "http://www.w3.org/Graphics/SVG/1.1/DTD/svg11.dtd"><svg class="icon" width="128px" height="128.00px" viewBox="0 0 1024 1024" version="1.1" xmlns="http://www.w3.org/2000/svg"><path d="M957.27 898.09h0.94V427.76H67.65V491c0 1-0.28 2-0.28 3.07v393.8c0 1.06 0.24 2 0.28 3.07v7.14h0.66c4.58 34.87 31.81 61.76 65 61.76h758.91c33.24 0 60.47-26.88 65-61.75z" fill="#F3F3F3" /><path d="M68.31 200.49h-0.94v237.9h890.56v-58c0-1 0.28-1.86 0.28-2.83V209.87c0-1-0.24-1.87-0.28-2.83v-6.55h-0.66a65.84 65.84 0 0 0-65-56.73H133.35a65.85 65.85 0 0 0-65.04 56.73z"  /><path d="M68.31 200.49h-0.94v237.9h890.56v-58c0-1 0.28-1.86 0.28-2.83V209.87c0-1-0.24-1.87-0.28-2.83v-6.55h-0.66a65.84 65.84 0 0 0-65-56.73H133.35a65.85 65.85 0 0 0-65.04 56.73z" fill="#FB151E" /><path d="M300.36 67.19h3.58a31.88 31.88 0 0 1 31.88 31.88v102.8h-67.34V99.07a31.88 31.88 0 0 1 31.88-31.88zM721.23 67.19h3.58a31.88 31.88 0 0 1 31.88 31.88v102.8h-67.35V99.07a31.88 31.88 0 0 1 31.89-31.88z" fill="#D90000" /><path d="M159.05 563.81h176.76v176.76H159.05zM400.41 563.81h468.43v67.34H400.41zM400.41 673.23h468.43v67.34H400.41z" fill="#C6C6C6" /><path d="M67.36 438.39h890.85v47.33H67.36z" fill="#D90000" /></svg>